<svg width="47" height="47" viewBox="0 0 47 47" fill="none" xmlns="http://www.w3.org/2000/svg">
<g id="65159e844f8f08a72cefa2f6_CheckCircle 1">
<path id="Vector" d="M23.5 4.40625C19.7236 4.40625 16.032 5.52608 12.8921 7.62412C9.75215 9.72219 7.30484 12.7042 5.85969 16.1931C4.41452 19.682 4.0364 23.5212 4.77315 27.2249C5.50987 30.9287 7.32838 34.331 9.99868 37.0013C12.669 39.6717 16.0712 41.4902 19.7751 42.227C23.4789 42.9637 27.318 42.5855 30.8069 41.1403C34.2957 39.6952 37.2779 37.2479 39.3758 34.1079C41.474 30.9679 42.5938 27.2765 42.5938 23.5C42.5885 18.4377 40.5751 13.5842 36.9955 10.0046C33.4158 6.42498 28.5623 4.4116 23.5 4.40625ZM31.8828 20.1328L21.6016 30.4141C21.4653 30.5508 21.3033 30.6591 21.1249 30.7329C20.9467 30.8069 20.7556 30.8449 20.5625 30.8449C20.3694 30.8449 20.1783 30.8069 20.0001 30.7329C19.8219 30.6591 19.6597 30.5508 19.5234 30.4141L15.1171 26.0078C14.8415 25.7323 14.6867 25.3585 14.6867 24.9688C14.6867 24.579 14.8415 24.2052 15.1171 23.9297C15.3927 23.6539 15.7665 23.4992 16.1563 23.4992C16.546 23.4992 16.9198 23.6539 17.1954 23.9297L20.5625 27.2986L29.8047 18.0546C29.9412 17.9181 30.1031 17.8099 30.2813 17.7361C30.4597 17.6622 30.6509 17.6242 30.8438 17.6242C31.0368 17.6242 31.2278 17.6622 31.4062 17.7361C31.5844 17.8099 31.7463 17.9181 31.8828 18.0546C32.0193 18.1911 32.1276 18.3531 32.2015 18.5314C32.2753 18.7097 32.3133 18.9008 32.3133 19.0938C32.3133 19.2867 32.2753 19.4778 32.2015 19.6562C32.1276 19.8344 32.0193 19.9963 31.8828 20.1328Z" fill="#986EEB"/>
</g>
</svg>
